<svg id="etmallLogo" data-name="etmallLogo" xmlns="http://www.w3.org/2000/svg" viewBox="0 0 354.28 88.71"><defs><style>.logo__outer{fill:#fff}.logo__primary{fill:#b60005}.logo__secondary{fill:#f08719}</style></defs><path class="logo__outer" d="M241.48 108.82a5.14 5.14 0 0 1-5-3.13c-6.11-13.84-11.64-27.53-12.2-42.89C223.92 52.13 227 44.89 234 40a25.51 25.51 0 0 1 14.68-4.89 24.76 24.76 0 0 1 10.93 2.62h.1c5.44 3.14 8.8 6.46 10.91 10.78.56 1.13.91 1.35 2.21 1.35h1c9.49 0 17 4.28 21.66 12.39 4.77 8.26 4.74 16.94-.09 25.09-2.91 4.91-7.69 7.59-12.75 10.11-12.71 6.36-26.63 9-39.81 11.2a8.17 8.17 0 0 1-1.36.12Z" transform="translate(-16.4 -21.61)"/><path class="logo__outer" d="M248.71 36.62A23.35 23.35 0 0 1 259 39.09c5.18 3 8.33 6.06 10.31 10.13a3.35 3.35 0 0 0 3.57 2.2h1c8.88 0 15.86 3.84 20.36 11.64s4.52 15.81-.08 23.57c-2.76 4.66-7.46 7.21-12.13 9.54-12.41 6.2-25.85 8.82-39.38 11.06a7.28 7.28 0 0 1-1.12.1 3.64 3.64 0 0 1-3.6-2.24c-6-13.55-11.53-27.24-12.08-42.33-.31-8.54 1.52-16.26 9.08-21.51a24.07 24.07 0 0 1 13.83-4.62m0-3a27 27 0 0 0-15.54 5.16c-9.83 6.83-10.62 17-10.36 24.08.57 15.62 6.15 29.46 12.32 43.43a6.64 6.64 0 0 0 6.35 4 10.11 10.11 0 0 0 1.61-.14c13.28-2.2 27.33-4.89 40.23-11.33 5.27-2.64 10.26-5.44 13.37-10.7 5.12-8.64 5.15-17.84.1-26.6-5-8.6-12.9-13.14-23-13.14h-1a4.1 4.1 0 0 1-.6 0 3.57 3.57 0 0 1-.27-.47c-2.25-4.6-5.8-8.12-11.52-11.42l-.18-.09a26.16 26.16 0 0 0-11.59-2.78Z" transform="translate(-16.4 -21.61)"/><path class="logo__outer" d="M273.48 48.39a1.51 1.51 0 0 1-1.48-1.15l-.12-.52c-1-4.14 0-9 2.71-13.24s6.75-7.27 10.79-8.07l.53-.11h.29a1.5 1.5 0 0 1 1.44 1.08l.15.51c1.13 3.84.13 8.79-2.67 13.23s-6.89 7.54-10.88 8.19l-.54.09Z" transform="translate(-16.4 -21.61)"/><path class="logo__outer" d="m286.22 26.77.15.52c1 3.43.08 7.91-2.49 12s-6.29 6.93-9.86 7.51l-.54.09-.13-.53c-.9-3.74 0-8.14 2.52-12.07s6.17-6.68 9.83-7.41l.52-.11m0-3a3 3 0 0 0-.59.06l-.52.11c-4.44.88-8.84 4.15-11.76 8.73s-4 9.86-2.91 14.4l.13.53a3 3 0 0 0 2.91 2.29 3.88 3.88 0 0 0 .48 0l.54-.09c4.41-.71 8.86-4 11.91-8.87s4.09-10.21 2.84-14.45l-.15-.51a3 3 0 0 0-2.88-2.16Z" transform="translate(-16.4 -21.61)"/><path class="logo__outer" d="M286.28 53.36c-4.13 0-7.83-1.29-10.14-3.52l-.39-.37a1.51 1.51 0 0 1-.11-2L276 47a15.72 15.72 0 0 1 11-5.19c.49 0 1-.06 1.44-.06a15.44 15.44 0 0 1 10.22 3.49l.4.36a1.5 1.5 0 0 1 .2 2l-.32.43c-2.17 2.9-6.28 4.86-11 5.24-.56.06-1.12.09-1.66.09Z" transform="translate(-16.4 -21.61)"/><path class="logo__outer" d="M288.42 43.26a13.93 13.93 0 0 1 9.23 3.11l.4.36-.32.42c-1.92 2.56-5.62 4.3-9.91 4.64-.52 0-1 .07-1.54.07-3.72 0-7-1.12-9.1-3.1l-.39-.37.35-.42a14.2 14.2 0 0 1 10-4.66c.44 0 .88-.05 1.31-.05m0-3c-.51 0-1 0-1.54.06a17.21 17.21 0 0 0-12.06 5.74l-.34.41a3 3 0 0 0 .23 4.08l.39.37c2.59 2.5 6.66 3.94 11.18 3.94.58 0 1.18 0 1.77-.08 5.15-.41 9.66-2.59 12.08-5.83l.32-.43a3 3 0 0 0-.4-4l-.4-.36a16.91 16.91 0 0 0-11.23-3.88ZM270.68 46a1.69 1.69 0 0 1-.53-.09l-.5-.19c-3.43-1.29-6.48-4.72-8.17-9.18s-1.68-9 0-12.17l.25-.48a1.49 1.49 0 0 1 1.91-.68l.49.21c3.44 1.43 6.47 4.82 8.1 9.05a15.67 15.67 0 0 1 0 12.18l-.23.49a1.49 1.49 0 0 1-1.32.86Z" transform="translate(-16.4 -21.61)"/><path class="logo__outer" d="m263.07 24.61.49.21c3.07 1.28 5.79 4.35 7.28 8.21a14.17 14.17 0 0 1 .07 11l-.23.49-.5-.19c-3-1.13-5.76-4.24-7.3-8.3s-1.55-8.12-.06-10.94l.25-.48m0-3a3 3 0 0 0-2.65 1.6l-.25.47c-1.89 3.58-1.93 8.59-.1 13.41s5.23 8.62 9.05 10l.5.19a3 3 0 0 0 1.06.19 3 3 0 0 0 2.72-1.72l.23-.49a17.22 17.22 0 0 0 0-13.36c-1.78-4.6-5.11-8.31-8.92-9.9l-.49-.2a3 3 0 0 0-1.16-.24Zm-154.86 86.48a9.09 9.09 0 0 1-3.61-.72 9.45 9.45 0 0 1-2.91-1.92 8.89 8.89 0 0 1-2-2.91 9.09 9.09 0 0 1-.69-3.61V47.07H84.76a8.92 8.92 0 0 1-3.64-.76 9.6 9.6 0 0 1-2.9-2 9.29 9.29 0 0 1-2-3 9.43 9.43 0 0 1-.71-3.63 9.17 9.17 0 0 1 9.22-9.22h47a8.84 8.84 0 0 1 3.63.76 10 10 0 0 1 2.92 2 8.86 8.86 0 0 1 2 3 9.29 9.29 0 0 1 .72 3.63 9.05 9.05 0 0 1-2.73 6.55 9.49 9.49 0 0 1-2.94 2 9.09 9.09 0 0 1-3.61.72h-14.17v51.81a8.92 8.92 0 0 1-.76 3.64 9.34 9.34 0 0 1-8.58 5.52Z" transform="translate(-16.4 -21.61)"/><path class="logo__outer" d="M131.78 30a7.26 7.26 0 0 1 3 .63 8.36 8.36 0 0 1 2.48 1.68A7.26 7.26 0 0 1 139 34.8a7.83 7.83 0 0 1 .6 3.05 7.61 7.61 0 0 1-.6 3 7.33 7.33 0 0 1-1.68 2.45 7.91 7.91 0 0 1-2.52 1.7 7.57 7.57 0 0 1-3 .6h-15.75v53.33a7.26 7.26 0 0 1-.63 3 7.76 7.76 0 0 1-1.68 2.43 8 8 0 0 1-2.48 1.61 7.83 7.83 0 0 1-3.05.6 7.61 7.61 0 0 1-3-.6 8 8 0 0 1-2.45-1.61 7.37 7.37 0 0 1-1.65-2.43 7.57 7.57 0 0 1-.6-3V45.57H84.76a7.26 7.26 0 0 1-3-.63 8.14 8.14 0 0 1-2.46-1.68 7.61 7.61 0 0 1-1.64-2.48 7.83 7.83 0 0 1-.6-3.05 7.61 7.61 0 0 1 .6-3 7.62 7.62 0 0 1 4.1-4.1 7.57 7.57 0 0 1 3-.6h47m0-3h-47a10.61 10.61 0 0 0-4.2.84 10.67 10.67 0 0 0-5.68 5.68 10.61 10.61 0 0 0-.84 4.2 10.9 10.9 0 0 0 .83 4.21 10.59 10.59 0 0 0 2.3 3.45 11.07 11.07 0 0 0 3.35 2.29 10.26 10.26 0 0 0 4.24.89h12.73v50.34a10.58 10.58 0 0 0 3.15 7.6 11.08 11.08 0 0 0 3.38 2.22 10.52 10.52 0 0 0 4.19.84 10.78 10.78 0 0 0 10-6.41 10.34 10.34 0 0 0 .89-4.25V48.57h12.73a10.61 10.61 0 0 0 4.2-.84 11.22 11.22 0 0 0 3.4-2.26 10.54 10.54 0 0 0 3.18-7.62 10.9 10.9 0 0 0-.83-4.21 10.47 10.47 0 0 0-2.36-3.48A11.65 11.65 0 0 0 136 27.9a10.34 10.34 0 0 0-4.25-.89Zm78.75 81.06a9.86 9.86 0 0 1-3.82-.75 10.51 10.51 0 0 1-3.12-2 10.08 10.08 0 0 1-2.16-3 8.76 8.76 0 0 1-.85-3.82V71.2a7.37 7.37 0 0 0-.57-2.64 6 6 0 0 0-1.4-2 6.3 6.3 0 0 0-2.12-1.31 7.45 7.45 0 0 0-2.67-.47 6.53 6.53 0 0 0-2.54.49 7.06 7.06 0 0 0-2.13 1.34 6.67 6.67 0 0 0-1.48 2 5.52 5.52 0 0 0-.61 2.37v27.54a9.36 9.36 0 0 1-2.84 6.79 9.76 9.76 0 0 1-3 2 9.33 9.33 0 0 1-3.71.76 9.86 9.86 0 0 1-3.82-.75 10.51 10.51 0 0 1-3.12-2 10.08 10.08 0 0 1-2.16-3 8.76 8.76 0 0 1-.85-3.82V71.2a6.36 6.36 0 0 0-6.69-6.44 7.28 7.28 0 0 0-2.61.47 6.93 6.93 0 0 0-2.24 1.31 5.92 5.92 0 0 0-1.45 1.94 5.44 5.44 0 0 0-.52 2.4v27.64a9.47 9.47 0 0 1-.76 3.77 9.37 9.37 0 0 1-2.08 3 10 10 0 0 1-3 2 9.33 9.33 0 0 1-3.71.76 9.86 9.86 0 0 1-3.82-.75 10.26 10.26 0 0 1-3.12-2 10 10 0 0 1-2.17-3 8.75 8.75 0 0 1-.84-3.82V71a24.81 24.81 0 0 1 2.06-10 26.21 26.21 0 0 1 13.84-13.71 25.46 25.46 0 0 1 10.06-2 25.9 25.9 0 0 1 9.67 1.82 27.05 27.05 0 0 1 7 4.13 28.72 28.72 0 0 1 7.12-4.13 26.17 26.17 0 0 1 19.6.17 26.32 26.32 0 0 1 8.15 5.39 27.2 27.2 0 0 1 5.59 8 25.71 25.71 0 0 1 2.38 9.59 5.08 5.08 0 0 1 .07.94v27.32a9.36 9.36 0 0 1-2.84 6.79 9.76 9.76 0 0 1-3 2 9.33 9.33 0 0 1-3.72.78Z" transform="translate(-16.4 -21.61)"/><path class="logo__outer" d="M193.93 46.74a23.87 23.87 0 0 1 9.43 1.87 24.5 24.5 0 0 1 7.69 5.09 25.37 25.37 0 0 1 5.28 7.52 24.08 24.08 0 0 1 2.19 9.22 3.55 3.55 0 0 1 .06.76v27.32a7.81 7.81 0 0 1-2.38 5.72 8.49 8.49 0 0 1-2.57 1.71 7.68 7.68 0 0 1-3.12.64 8.25 8.25 0 0 1-3.24-.64 8.48 8.48 0 0 1-4.51-4.25 7.25 7.25 0 0 1-.7-3.18V71.2a8.64 8.64 0 0 0-.7-3.24 7.32 7.32 0 0 0-1.75-2.51 7.72 7.72 0 0 0-2.6-1.62 8.92 8.92 0 0 0-3.21-.57 8.09 8.09 0 0 0-3.11.6 8.67 8.67 0 0 0-2.58 1.62 8.25 8.25 0 0 0-1.81 2.42 7.26 7.26 0 0 0-.76 3v27.62a7.81 7.81 0 0 1-2.38 5.72 8.49 8.49 0 0 1-2.57 1.71 7.68 7.68 0 0 1-3.12.64 8.25 8.25 0 0 1-3.24-.64 8.48 8.48 0 0 1-4.51-4.25 7.25 7.25 0 0 1-.7-3.18V71.2a7.86 7.86 0 0 0-8.19-7.94 8.75 8.75 0 0 0-3.15.57 8.5 8.5 0 0 0-2.68 1.59 7.57 7.57 0 0 0-1.81 2.41 7.05 7.05 0 0 0-.66 3v27.69a8 8 0 0 1-.64 3.18 7.9 7.9 0 0 1-1.75 2.54 8.49 8.49 0 0 1-2.57 1.71 7.59 7.59 0 0 1-3.11.64 8.18 8.18 0 0 1-3.24-.64 8.54 8.54 0 0 1-4.52-4.25 7.39 7.39 0 0 1-.69-3.18V71a23.28 23.28 0 0 1 1.99-9.43 24.72 24.72 0 0 1 13-12.93 23.77 23.77 0 0 1 9.47-1.9 24.4 24.4 0 0 1 9.12 1.71 25.34 25.34 0 0 1 7.59 4.7 27.17 27.17 0 0 1 7.69-4.7 23.92 23.92 0 0 1 9-1.71m0-3a27 27 0 0 0-10.14 1.93 30 30 0 0 0-6.54 3.63 28.92 28.92 0 0 0-6.51-3.63 27.48 27.48 0 0 0-10.23-1.93 26.81 26.81 0 0 0-10.65 2.15 27.63 27.63 0 0 0-14.62 14.48A26.18 26.18 0 0 0 133.05 71v27.52a10.23 10.23 0 0 0 1 4.47 11.52 11.52 0 0 0 6.06 5.73 11.29 11.29 0 0 0 4.4.87 10.69 10.69 0 0 0 4.31-.89 11.59 11.59 0 0 0 3.46-2.31 10.9 10.9 0 0 0 3.3-7.87V70.88a4.05 4.05 0 0 1 .37-1.76 4.51 4.51 0 0 1 1.05-1.46 5.51 5.51 0 0 1 1.72-1 5.77 5.77 0 0 1 2.08-.37 4.87 4.87 0 0 1 5.19 5v27.23a10.23 10.23 0 0 0 1 4.47 11.41 11.41 0 0 0 2.48 3.43 11.75 11.75 0 0 0 3.58 2.3 11.24 11.24 0 0 0 4.39.87 10.69 10.69 0 0 0 4.31-.89 11.51 11.51 0 0 0 3.47-2.31 10.84 10.84 0 0 0 3.29-7.87V71a4.13 4.13 0 0 1 .45-1.71 5.26 5.26 0 0 1 1.15-1.55 5.7 5.7 0 0 1 1.69-1.06 5.15 5.15 0 0 1 2-.37 5.94 5.94 0 0 1 2.14.37 4.86 4.86 0 0 1 1.62 1 4.53 4.53 0 0 1 1.05 1.53 5.73 5.73 0 0 1 .45 2.1v27.21a10.37 10.37 0 0 0 1 4.47 11.62 11.62 0 0 0 2.49 3.43 11.75 11.75 0 0 0 3.58 2.3 11.24 11.24 0 0 0 4.39.87 10.69 10.69 0 0 0 4.31-.89 11.51 11.51 0 0 0 3.47-2.31 10.84 10.84 0 0 0 3.29-7.87V71.2a7.18 7.18 0 0 0-.07-1.1 27.17 27.17 0 0 0-2.47-10.1 28.67 28.67 0 0 0-5.9-8.41 27.75 27.75 0 0 0-8.61-5.7 27.08 27.08 0 0 0-10.61-2.11ZM41.92 108.12a23.1 23.1 0 0 1-9.36-1.93A24.34 24.34 0 0 1 19.79 93.3a23.69 23.69 0 0 1-1.88-9.37 24.34 24.34 0 0 1 1.69-9 25.38 25.38 0 0 1 3.8-6.5 26.58 26.58 0 0 1-3.79-6.55 24.41 24.41 0 0 1 .15-18.27 24.45 24.45 0 0 1 5-7.6 25.24 25.24 0 0 1 7.42-5.2 23.79 23.79 0 0 1 9-2.16 4.45 4.45 0 0 1 .89-.07h25.37a8.75 8.75 0 0 1 6.38 2.67 9.48 9.48 0 0 1 1.89 2.83 8.75 8.75 0 0 1 .71 3.49 9.21 9.21 0 0 1-.7 3.58 9.77 9.77 0 0 1-1.89 2.93 9.32 9.32 0 0 1-2.8 2 8.2 8.2 0 0 1-3.59.79H42.1a6.79 6.79 0 0 0-2.41.53 5.71 5.71 0 0 0-1.84 1.27 5.92 5.92 0 0 0-1.19 1.93 6.66 6.66 0 0 0-.43 2.44 6 6 0 0 0 .45 2.31 6.5 6.5 0 0 0 1.22 2 6.21 6.21 0 0 0 1.8 1.35 5.19 5.19 0 0 0 2.16.55h25.58a8.8 8.8 0 0 1 6.38 2.66 9.46 9.46 0 0 1 1.89 2.84 8.73 8.73 0 0 1 .71 3.48 9.26 9.26 0 0 1-.7 3.59 9.6 9.6 0 0 1-1.89 2.92 9.43 9.43 0 0 1-2.8 2 8.34 8.34 0 0 1-3.59.79H42.1a5.8 5.8 0 0 0-5.87 6.1A6.61 6.61 0 0 0 37.85 88a5.62 5.62 0 0 0 1.77 1.32 4.9 4.9 0 0 0 2.18.47h25.64a8.72 8.72 0 0 1 3.54.72 8.88 8.88 0 0 1 2.84 1.95 9.46 9.46 0 0 1 1.89 2.84 8.7 8.7 0 0 1 .71 3.48 9.21 9.21 0 0 1-.7 3.58 9.52 9.52 0 0 1-1.89 2.93 9.32 9.32 0 0 1-2.8 2 8.21 8.21 0 0 1-3.59.8Z" transform="translate(-16.4 -21.61)"/><path class="logo__outer" d="M67.44 30.06a7.32 7.32 0 0 1 2.94.59 7.2 7.2 0 0 1 2.36 1.62 7.93 7.93 0 0 1 1.59 2.39 7 7 0 0 1 .59 2.89 7.57 7.57 0 0 1-.59 3A8 8 0 0 1 72.74 43a8.12 8.12 0 0 1-2.36 1.71 6.73 6.73 0 0 1-2.94.64H42.1a8.29 8.29 0 0 0-3 .65 7 7 0 0 0-3.83 4 8.3 8.3 0 0 0-.53 3 7.5 7.5 0 0 0 .56 2.88 7.93 7.93 0 0 0 1.5 2.39A7.62 7.62 0 0 0 39 60a6.76 6.76 0 0 0 2.77.71h25.67a7.31 7.31 0 0 1 5.3 2.21 7.88 7.88 0 0 1 1.59 2.38 7.08 7.08 0 0 1 .59 2.89 7.62 7.62 0 0 1-.59 3 7.94 7.94 0 0 1-1.59 2.47 7.77 7.77 0 0 1-2.36 1.71 6.73 6.73 0 0 1-2.94.65H42.1a7.3 7.3 0 0 0-7.37 7.6 8.13 8.13 0 0 0 .53 2.92A7.88 7.88 0 0 0 36.73 89 7.29 7.29 0 0 0 39 90.68a6.54 6.54 0 0 0 2.83.61h25.61a7.32 7.32 0 0 1 2.94.59 7.52 7.52 0 0 1 2.36 1.62 7.93 7.93 0 0 1 1.59 2.39 7.08 7.08 0 0 1 .59 2.89 7.66 7.66 0 0 1-.59 3 8.06 8.06 0 0 1-1.59 2.47 7.77 7.77 0 0 1-2.36 1.75 6.73 6.73 0 0 1-2.94.65H41.92a21.51 21.51 0 0 1-8.75-1.8 22.92 22.92 0 0 1-12-12.11 22 22 0 0 1-1.77-8.78 22.57 22.57 0 0 1 1.6-8.49 23.21 23.21 0 0 1 4.36-7A24.94 24.94 0 0 1 21 61.3a22.78 22.78 0 0 1 .14-17.12A23 23 0 0 1 25.86 37a23.59 23.59 0 0 1 7-4.89 22.39 22.39 0 0 1 8.55-2 3.1 3.1 0 0 1 .71-.06h25.32m0-3H42.1a6.59 6.59 0 0 0-1.05.07 25.3 25.3 0 0 0-9.47 2.3 26.58 26.58 0 0 0-7.86 5.51A26 26 0 0 0 18.38 43a25.84 25.84 0 0 0-.17 19.42 28.54 28.54 0 0 0 3.3 6 27 27 0 0 0-3.3 6 25.57 25.57 0 0 0-1.81 9.57 25 25 0 0 0 2 10A25.83 25.83 0 0 0 32 107.57a24.63 24.63 0 0 0 10 2.05h25.44a9.81 9.81 0 0 0 4.24-.94 11 11 0 0 0 5.42-5.74 10.68 10.68 0 0 0 .82-4.16 10.15 10.15 0 0 0-.84-4.09 10.82 10.82 0 0 0-2.18-3.27 10.33 10.33 0 0 0-3.32-2.29 10.45 10.45 0 0 0-4.14-.84H41.8a3.51 3.51 0 0 1-1.54-.29A4.06 4.06 0 0 1 39 87a4.92 4.92 0 0 1-.92-1.53 5.15 5.15 0 0 1-.33-1.85A4.32 4.32 0 0 1 42.16 79h25.28a9.81 9.81 0 0 0 4.24-.94 11.13 11.13 0 0 0 3.24-2.35 11.26 11.26 0 0 0 2.18-3.39 10.61 10.61 0 0 0 .82-4.16 10.1 10.1 0 0 0-.84-4.08 10.77 10.77 0 0 0-2.19-3.28 10.19 10.19 0 0 0-7.45-3.12H41.87a3.83 3.83 0 0 1-1.5-.39 4.85 4.85 0 0 1-1.37-1 5.14 5.14 0 0 1-.94-1.51 4.53 4.53 0 0 1-.33-1.74 5.36 5.36 0 0 1 .33-1.91 4.31 4.31 0 0 1 .88-1.43 4 4 0 0 1 1.35-.93 5.35 5.35 0 0 1 1.86-.4h25.29a9.67 9.67 0 0 0 4.24-.94 10.78 10.78 0 0 0 3.24-2.35 11 11 0 0 0 2.18-3.38 10.6 10.6 0 0 0 .82-4.15 10.15 10.15 0 0 0-.84-4.09 10.9 10.9 0 0 0-2.19-3.28 10.3 10.3 0 0 0-7.45-3.12Zm259.36 81.04a25 25 0 0 1-8.71-1.66 22.66 22.66 0 0 1-7.18-4.42 20.86 20.86 0 0 1-4.86-6.81 21.17 21.17 0 0 1-1.78-8.69V33a10 10 0 0 1 2.73-7 9.65 9.65 0 0 1 3-2 9.2 9.2 0 0 1 3.69-.76 10.07 10.07 0 0 1 3.84.75 10.24 10.24 0 0 1 3.19 2 9.92 9.92 0 0 1 2.21 3.1 9.2 9.2 0 0 1 .84 3.87v53.55c0 .93.33 1.25.66 1.44a5.2 5.2 0 0 0 2.67.62 9.08 9.08 0 0 1 3.9.84 10 10 0 0 1 3 2.17 9.81 9.81 0 0 1 2 3.15 10.25 10.25 0 0 1 .71 3.79 10 10 0 0 1-.71 3.77 9.09 9.09 0 0 1-5.09 5.09 10.23 10.23 0 0 1-3.83.71Z" transform="translate(-16.4 -21.61)"/><path class="logo__outer" d="M313.71 24.69a8.61 8.61 0 0 1 3.27.63 9 9 0 0 1 2.74 1.75 8.49 8.49 0 0 1 1.87 2.64 7.8 7.8 0 0 1 .7 3.24v53.56a2.91 2.91 0 0 0 1.4 2.73 6.63 6.63 0 0 0 3.43.83 7.59 7.59 0 0 1 3.27.7 8.55 8.55 0 0 1 2.61 1.84 8.37 8.37 0 0 1 1.69 2.67 8.79 8.79 0 0 1 .6 3.24 8.52 8.52 0 0 1-.6 3.21 7.6 7.6 0 0 1-4.26 4.26 8.73 8.73 0 0 1-3.27.6h-.32a23.12 23.12 0 0 1-8.16-1.56 20.84 20.84 0 0 1-6.71-4.13 19.09 19.09 0 0 1-4.51-6.32 19.54 19.54 0 0 1-1.65-8.07V33a8.42 8.42 0 0 1 2.35-5.88 8.16 8.16 0 0 1 2.51-1.75 7.54 7.54 0 0 1 3.08-.63m0-3a10.58 10.58 0 0 0-4.3.89A11 11 0 0 0 306 25a11.42 11.42 0 0 0-3.2 8v53.51a22.59 22.59 0 0 0 1.91 9.3 22.2 22.2 0 0 0 5.22 7.3 23.82 23.82 0 0 0 7.65 4.72 26.45 26.45 0 0 0 9.21 1.76h.36a11.79 11.79 0 0 0 4.4-.82 10.53 10.53 0 0 0 3.56-2.35 10.68 10.68 0 0 0 2.35-3.56 11.46 11.46 0 0 0-5.77-14.81 10.64 10.64 0 0 0-4.54-1 3.9 3.9 0 0 1-1.82-.36 1.09 1.09 0 0 1 0-.2V33a10.79 10.79 0 0 0-1-4.49 11.51 11.51 0 0 0-2.54-3.56 11.83 11.83 0 0 0-3.66-2.35 11.63 11.63 0 0 0-4.41-.86Z" transform="translate(-16.4 -21.61)"/><path class="logo__outer" d="M359.24 108.09a25 25 0 0 1-8.71-1.66 22.55 22.55 0 0 1-7.18-4.42 20.84 20.84 0 0 1-6.65-15.5V33a10 10 0 0 1 2.78-7 9.42 9.42 0 0 1 3-2.08 9.13 9.13 0 0 1 3.69-.76 10 10 0 0 1 3.83.75 10 10 0 0 1 5.41 5.14 9.35 9.35 0 0 1 .83 3.87v53.59c0 .93.34 1.25.66 1.44a5.22 5.22 0 0 0 2.67.62 9.12 9.12 0 0 1 3.91.84 10.09 10.09 0 0 1 3 2.17 9.87 9.87 0 0 1 2 3.14 10.34 10.34 0 0 1 .71 3.8 9.85 9.85 0 0 1-.72 3.77 9 9 0 0 1-2 3.07 9.32 9.32 0 0 1-3.07 2 10.25 10.25 0 0 1-3.84.71Z" transform="translate(-16.4 -21.61)"/><path class="logo__outer" d="M346.15 24.69a8.65 8.65 0 0 1 3.27.63 8.81 8.81 0 0 1 2.73 1.75 8.52 8.52 0 0 1 1.85 2.64 7.79 7.79 0 0 1 .69 3.24v53.56a2.92 2.92 0 0 0 1.4 2.73 6.65 6.65 0 0 0 3.43.83 7.52 7.52 0 0 1 3.27.7 8.47 8.47 0 0 1 2.58 1.84 8.18 8.18 0 0 1 1.68 2.67 8.6 8.6 0 0 1 .61 3.24 8.34 8.34 0 0 1-.61 3.21 7.64 7.64 0 0 1-1.68 2.57 7.76 7.76 0 0 1-2.58 1.69 8.65 8.65 0 0 1-3.27.6h-.31a23.13 23.13 0 0 1-8.17-1.56 20.8 20.8 0 0 1-6.7-4.13 19 19 0 0 1-4.51-6.32 19.55 19.55 0 0 1-1.66-8.07V33a8.43 8.43 0 0 1 .64-3.24 8.26 8.26 0 0 1 1.72-2.64 8 8 0 0 1 2.51-1.75 7.54 7.54 0 0 1 3.08-.63m0-3a10.54 10.54 0 0 0-4.3.89 11 11 0 0 0-3.44 2.4 11.27 11.27 0 0 0-2.34 3.58 11.42 11.42 0 0 0-.84 4.39v53.51a22.6 22.6 0 0 0 1.92 9.3 22.17 22.17 0 0 0 5.21 7.3 24 24 0 0 0 7.66 4.72 26.44 26.44 0 0 0 9.2 1.76h.36a11.79 11.79 0 0 0 4.4-.82 10.55 10.55 0 0 0 5.91-5.91 11.44 11.44 0 0 0 .83-4.34 11.71 11.71 0 0 0-.82-4.34 11.3 11.3 0 0 0-2.29-3.63 11.54 11.54 0 0 0-3.48-2.5 10.69 10.69 0 0 0-4.55-1 3.88 3.88 0 0 1-1.81-.36 1 1 0 0 1 0-.2V33a10.78 10.78 0 0 0-1-4.49 11.51 11.51 0 0 0-2.54-3.56 11.83 11.83 0 0 0-3.66-2.35 11.7 11.7 0 0 0-4.41-.86Z" transform="translate(-16.4 -21.61)"/><path class="logo__primary" d="M294.19 63.05c-4.62-8-11.86-11.84-21.07-11.64-2 .05-2.94-.4-3.82-2.19-2-4.07-5.13-7.14-10.31-10.13-7.49-3.65-16-3.51-24.11 2.15-7.56 5.25-9.39 13-9.08 21.51.55 15.09 6.09 28.78 12.08 42.33.89 2 2.74 2.47 4.72 2.14 13.53-2.24 27-4.86 39.38-11.06 4.67-2.33 9.37-4.88 12.13-9.54 4.6-7.76 4.56-15.81.08-23.57Z" transform="translate(-16.4 -21.61)"/><path d="M283.88 39.29c2.57-4.09 3.5-8.57 2.49-12l-.15-.52-.52.11c-3.66.73-7.33 3.5-9.83 7.41s-3.42 8.33-2.52 12.07l.13.53.54-.09c3.57-.58 7.26-3.39 9.86-7.51Zm13.77 7.08c-2.48-2.22-6.41-3.36-10.54-3.06a14.2 14.2 0 0 0-10 4.66l-.35.42.39.37c2.05 2 5.38 3.1 9.1 3.1.5 0 1 0 1.54-.07 4.29-.34 8-2.08 9.91-4.64l.32-.42Zm-34.09-21.55-.49-.21-.25.48c-1.49 2.82-1.47 6.91.06 10.94s4.27 7.17 7.3 8.3l.5.19.23-.49a14.17 14.17 0 0 0-.07-11c-1.49-3.86-4.21-6.93-7.28-8.21Z" transform="translate(-16.4 -21.61)" style="fill:#499b37"/><path class="logo__primary" d="M116.05 45.57v53.36a7.26 7.26 0 0 1-.63 3 7.86 7.86 0 0 1-7.21 4.64 7.61 7.61 0 0 1-3-.6 7.78 7.78 0 0 1-2.45-1.61 7.37 7.37 0 0 1-1.65-2.43 7.57 7.57 0 0 1-.6-3V45.57H84.76a7.26 7.26 0 0 1-3-.63 8.14 8.14 0 0 1-2.46-1.68 7.61 7.61 0 0 1-1.64-2.48 7.83 7.83 0 0 1-.6-3.05 7.61 7.61 0 0 1 .6-3 7.62 7.62 0 0 1 4.1-4.1 7.57 7.57 0 0 1 3-.6h47a7.26 7.26 0 0 1 3 .63 8.36 8.36 0 0 1 2.48 1.68A7.26 7.26 0 0 1 139 34.8a7.83 7.83 0 0 1 .6 3.05 7.61 7.61 0 0 1-.6 3 7.33 7.33 0 0 1-1.68 2.45 7.91 7.91 0 0 1-2.52 1.7 7.57 7.57 0 0 1-3 .6Z" transform="translate(-16.4 -21.61)"/><path class="logo__secondary" d="M185.54 98.52a7.81 7.81 0 0 1-2.38 5.72 8.49 8.49 0 0 1-2.57 1.71 7.68 7.68 0 0 1-3.12.64 8.25 8.25 0 0 1-3.24-.64 8.48 8.48 0 0 1-4.51-4.25 7.25 7.25 0 0 1-.7-3.18V71.2a7.86 7.86 0 0 0-8.19-7.94 8.75 8.75 0 0 0-3.15.57 8.5 8.5 0 0 0-2.68 1.59 7.57 7.57 0 0 0-1.81 2.41 7.05 7.05 0 0 0-.66 3v27.69a8 8 0 0 1-.64 3.18 7.9 7.9 0 0 1-1.75 2.54 8.49 8.49 0 0 1-2.57 1.71 7.59 7.59 0 0 1-3.11.64 8.18 8.18 0 0 1-3.24-.64 8.54 8.54 0 0 1-4.52-4.25 7.39 7.39 0 0 1-.69-3.18V71a23.28 23.28 0 0 1 1.99-9.43 24.72 24.72 0 0 1 13-12.93 23.77 23.77 0 0 1 9.47-1.9 24.4 24.4 0 0 1 9.12 1.71 25.34 25.34 0 0 1 7.59 4.7 27.17 27.17 0 0 1 7.69-4.7 24.68 24.68 0 0 1 18.45.16 24.5 24.5 0 0 1 7.69 5.09 25.37 25.37 0 0 1 5.28 7.52 24.08 24.08 0 0 1 2.19 9.22 3.55 3.55 0 0 1 .06.76v27.32a7.81 7.81 0 0 1-2.38 5.72 8.49 8.49 0 0 1-2.57 1.71 7.68 7.68 0 0 1-3.12.64 8.25 8.25 0 0 1-3.24-.64 8.48 8.48 0 0 1-4.51-4.25 7.25 7.25 0 0 1-.7-3.18V71.2a8.64 8.64 0 0 0-.7-3.24 7.42 7.42 0 0 0-1.75-2.51 7.72 7.72 0 0 0-2.6-1.62 8.92 8.92 0 0 0-3.21-.57 8.09 8.09 0 0 0-3.11.6 8.67 8.67 0 0 0-2.58 1.62 8.25 8.25 0 0 0-1.81 2.42 7.26 7.26 0 0 0-.76 3v27.62Z" transform="translate(-16.4 -21.61)"/><path class="logo__primary" d="M67.44 60.71a7.31 7.31 0 0 1 5.3 2.21 7.88 7.88 0 0 1 1.59 2.38 7.08 7.08 0 0 1 .59 2.89 7.62 7.62 0 0 1-.59 3 7.94 7.94 0 0 1-1.59 2.47 7.77 7.77 0 0 1-2.36 1.71 6.73 6.73 0 0 1-2.94.65H42.1a7.3 7.3 0 0 0-7.37 7.6 8.13 8.13 0 0 0 .53 2.92A7.88 7.88 0 0 0 36.73 89 7.29 7.29 0 0 0 39 90.68a6.54 6.54 0 0 0 2.83.61h25.61a7.32 7.32 0 0 1 2.94.59 7.52 7.52 0 0 1 2.36 1.62 7.93 7.93 0 0 1 1.59 2.39 7.08 7.08 0 0 1 .59 2.89 7.66 7.66 0 0 1-.59 3 8.06 8.06 0 0 1-1.59 2.47 7.77 7.77 0 0 1-2.36 1.75 6.73 6.73 0 0 1-2.94.65H41.92a21.51 21.51 0 0 1-8.75-1.8 22.92 22.92 0 0 1-12-12.11 22 22 0 0 1-1.77-8.78 22.57 22.57 0 0 1 1.6-8.49 23.21 23.21 0 0 1 4.36-7A24.94 24.94 0 0 1 21 61.3a22.78 22.78 0 0 1 .14-17.12A23 23 0 0 1 25.86 37a23.59 23.59 0 0 1 7-4.89 22.39 22.39 0 0 1 8.55-2 3.1 3.1 0 0 1 .71-.06h25.32a7.32 7.32 0 0 1 2.94.59 7.2 7.2 0 0 1 2.36 1.62 7.93 7.93 0 0 1 1.59 2.39 7 7 0 0 1 .59 2.89 7.57 7.57 0 0 1-.59 3A8 8 0 0 1 72.74 43a8.12 8.12 0 0 1-2.36 1.71 6.73 6.73 0 0 1-2.94.64H42.1a8.29 8.29 0 0 0-3 .65 7 7 0 0 0-3.83 4 8.3 8.3 0 0 0-.53 3 7.5 7.5 0 0 0 .56 2.88 7.93 7.93 0 0 0 1.5 2.39A7.62 7.62 0 0 0 39 60a6.8 6.8 0 0 0 2.77.71h25.67Z" transform="translate(-16.4 -21.61)"/><path class="logo__secondary" d="M327.12 90.07a7.59 7.59 0 0 1 3.27.7 8.55 8.55 0 0 1 2.61 1.84 8.37 8.37 0 0 1 1.69 2.67 8.79 8.79 0 0 1 .6 3.24 8.52 8.52 0 0 1-.6 3.21 7.6 7.6 0 0 1-4.26 4.26 8.73 8.73 0 0 1-3.27.6h-.32a23.12 23.12 0 0 1-8.16-1.56 20.84 20.84 0 0 1-6.71-4.13 19.09 19.09 0 0 1-4.51-6.32 19.54 19.54 0 0 1-1.65-8.07V33a8.42 8.42 0 0 1 2.35-5.88 8.16 8.16 0 0 1 2.51-1.75 7.54 7.54 0 0 1 3.08-.63 8.61 8.61 0 0 1 3.27.63 9 9 0 0 1 2.74 1.75 8.49 8.49 0 0 1 1.87 2.64 7.8 7.8 0 0 1 .7 3.24v53.51a2.91 2.91 0 0 0 1.4 2.73 6.63 6.63 0 0 0 3.39.83Zm32.43 0a7.52 7.52 0 0 1 3.27.7 8.47 8.47 0 0 1 2.58 1.84 8.18 8.18 0 0 1 1.68 2.67 8.6 8.6 0 0 1 .61 3.24 8.34 8.34 0 0 1-.61 3.21 7.64 7.64 0 0 1-1.68 2.57 7.76 7.76 0 0 1-2.58 1.69 8.65 8.65 0 0 1-3.27.6h-.31a23.13 23.13 0 0 1-8.17-1.56 20.8 20.8 0 0 1-6.7-4.13 19 19 0 0 1-4.51-6.32 19.55 19.55 0 0 1-1.66-8.07V33a8.43 8.43 0 0 1 .64-3.24 8.26 8.26 0 0 1 1.72-2.64 8 8 0 0 1 2.51-1.75 7.54 7.54 0 0 1 3.08-.63 8.65 8.65 0 0 1 3.27.63 8.81 8.81 0 0 1 2.73 1.75 8.52 8.52 0 0 1 1.85 2.59 7.79 7.79 0 0 1 .69 3.24v53.56a2.92 2.92 0 0 0 1.4 2.73 6.65 6.65 0 0 0 3.46.83Z" transform="translate(-16.4 -21.61)"/><path d="M251.92 91.05q-1.39 2.61-2.87 5.18a2.78 2.78 0 0 1-4.85-2.7c.46-.87 1-1.72 1.44-2.58s.94-1.74 1.44-2.59a2.77 2.77 0 0 1 4.84 2.69Zm-1.6-19.99c-.44.85-.93 1.67-1.39 2.51s-.91 1.68-1.4 2.5a2.77 2.77 0 0 1-4.85-2.68c.9-1.68 1.84-3.35 2.79-5a2.77 2.77 0 0 1 4.85 2.68Zm-1.61-19.98c-.45.85-.93 1.67-1.39 2.51s-.92 1.68-1.4 2.5a2.77 2.77 0 0 1-4.85-2.69q1.37-2.52 2.79-5a2.77 2.77 0 0 1 4.85 2.69Zm21.05 30.8c-.45.85-.93 1.67-1.39 2.51s-.92 1.68-1.4 2.5a2.77 2.77 0 0 1-4.85-2.69q1.36-2.52 2.79-5a2.77 2.77 0 0 1 4.85 2.69Zm-1.59-20.05c-.91 1.72-1.86 3.41-2.83 5.1a2.77 2.77 0 0 1-4.82-2.74c.45-.85.93-1.67 1.39-2.51s.92-1.68 1.4-2.5a2.72 2.72 0 0 1 3.7-1 2.69 2.69 0 0 1 1.16 3.65Zm19.42 10.86q-1.35 2.52-2.78 5A2.77 2.77 0 0 1 280 75c.43-.82.89-1.62 1.34-2.43s.92-1.68 1.4-2.5a2.77 2.77 0 0 1 4.86 2.66Z" transform="translate(-16.4 -21.61)" style="fill:#fff"/></svg>